<svg width="32" height="32" viewBox="0 0 32 32" fill="none" xmlns="http://www.w3.org/2000/svg">
  <!-- Background Circle -->
  <circle cx="16" cy="16" r="16" fill="url(#gradient)"/>
  
  <!-- Om Symbol Simplified -->
  <path d="M16 6C12 6 9 9 9 13C9 17 12 20 16 20C20 20 23 17 23 13C23 9 20 6 16 6ZM16 8C19 8 21 10 21 13C21 16 19 18 16 18C13 18 11 16 11 13C11 10 13 8 16 8Z" fill="white" opacity="0.9"/>
  <circle cx="16" cy="12" r="1.5" fill="white"/>
  
  <!-- Book Icon -->
  <rect x="10" y="22" width="12" height="3" rx="0.5" fill="white" opacity="0.8"/>
  
  <!-- Gradient Definition -->
  <defs>
    <linearGradient id="gradient" x1="0" y1="0" x2="32" y2="32" gradientUnits="userSpaceOnUse">
      <stop offset="0%" stop-color="#8B5CF6"/>
      <stop offset="50%" stop-color="#6366F1"/>
      <stop offset="100%" stop-color="#4F46E5"/>
    </linearGradient>
  </defs>
</svg>

